<svg width="21" height="21" viewBox="0 0 21 21" fill="none" xmlns="http://www.w3.org/2000/svg">
    <g clip-path="url(#clip0_124_434)">
        <path d="M6.72722 9.59025C8.31153 11.1599 9.88179 12.7119 11.4802 14.2921C11.7823 14.0598 11.9157 13.8944 12.0879 13.8311C12.6218 13.6375 13.1663 13.3454 13.7108 13.3419C15.0001 13.3313 17.6804 16.1116 17.7331 17.3997C17.7928 18.8813 15.8396 20.8944 14.3677 20.9894C13.1066 21.0704 12.0703 20.7185 11.0375 19.9829C6.90287 17.0372 3.40404 13.4827 0.565633 9.27702C-0.3161 7.96782 -0.143969 6.00402 0.95205 4.86727C1.29631 4.51182 1.6476 4.15636 2.03402 3.84314C2.9298 3.12167 4.14175 3.10407 5.00943 3.86074C5.75767 4.51182 6.46727 5.21217 7.12769 5.95123C8.02348 6.95073 7.92512 8.09804 6.72722 9.59025ZM16.616 17.463C16.4474 17.1956 16.2928 16.8507 16.0539 16.5832C15.6289 16.1046 15.1546 15.6682 14.6944 15.2177C13.753 14.2921 13.335 14.2534 12.4392 15.1966C11.8771 15.7878 11.4485 15.7491 10.9146 15.2107C9.27055 13.5566 7.62301 11.9025 5.94737 10.2765C5.29046 9.636 5.2483 9.14681 5.97196 8.49221C6.75182 7.78834 6.69561 7.23932 5.95439 6.47562C5.42395 5.93012 4.91809 5.34942 4.3209 4.89191C4.01879 4.65963 3.48132 4.49422 3.14057 4.59628C1.38062 5.12066 0.625352 7.29563 1.69678 8.77376C2.74011 10.2132 3.82207 11.635 4.98132 12.9794C7.18741 15.5344 9.7764 17.6742 12.5621 19.5747C13.2506 20.0427 14.0094 20.1624 14.7015 19.6908C15.4848 19.1559 16.2717 18.5716 16.616 17.4595V17.463Z" fill="#636ae8"/>
        <path d="M18.8537 1.00301C17.6102 1.00301 16.3701 0.999492 15.1266 1.00301C14.7226 1.00301 14.4942 0.893911 14.4205 0.665153C14.3116 0.330814 14.6067 -0.00352478 14.9579 -0.00352478H20.2132C20.6453 -0.00352478 20.9966 0.348411 20.9966 0.781292V6.14479C20.9966 6.43338 20.7577 6.69381 20.4732 6.65862C20.1886 6.62342 20.0446 6.38059 20.0446 5.88788C20.0516 4.66314 20.0446 3.44193 20.0446 1.98491C19.6863 2.30165 19.4544 2.48114 19.2472 2.68526C17.1184 4.80744 14.9931 6.93313 12.8678 9.0553C12.7027 9.22071 12.5622 9.46706 12.3619 9.52689C12.2987 9.54801 12.2319 9.55857 12.1617 9.56561C11.7366 9.61488 11.3572 9.22775 11.4591 8.81246C11.4732 8.75264 11.4978 8.69985 11.5364 8.66113C12.4216 7.69331 13.3701 6.78531 14.301 5.8562C15.8467 4.31121 17.3924 2.76973 18.9415 1.22473L18.8502 0.999492L18.8537 1.00301Z" fill="#636ae8"/>
    </g>
    <defs>
        <clipPath id="clip0_124_434">
            <rect width="21" height="21" fill="white"/>
        </clipPath>
    </defs>
</svg>
