<svg width="23" height="22" viewBox="0 0 23 22" fill="none" xmlns="http://www.w3.org/2000/svg">
    <g clip-path="url(#clip0_124_174)">
        <path d="M22.9998 10.1613V11.7521C22.9842 11.814 22.9634 11.8734 22.9556 11.9352C22.9009 12.3039 22.8749 12.6775 22.789 13.0387C21.9536 16.6336 19.8089 19.276 16.2927 20.8149C12.9378 22.2821 9.56734 22.1386 6.25671 20.5873C6.1474 20.5353 5.99384 20.5131 5.87672 20.5403C4.15634 20.9609 2.43596 21.3938 0.718182 21.8243C0.489145 21.8812 0.260108 21.9357 0.00244141 21.9975C0.0206603 21.9134 0.0284683 21.8664 0.0414818 21.8194C0.543802 20.0652 1.05133 18.3135 1.54584 16.5569C1.57707 16.4431 1.55885 16.2848 1.49899 16.1784C0.335586 14.1397 -0.125091 11.9624 0.163808 9.66397C0.489145 7.05623 1.63954 4.80477 3.68265 3.03329C7.07916 0.0890731 11.0457 -0.752133 15.3713 0.687813C19.4472 2.04364 21.9067 4.88394 22.8072 8.91184C22.8983 9.32254 22.9374 9.74562 22.9998 10.1613ZM2.7639 19.3848C2.8602 19.3675 2.90965 19.3601 2.9617 19.3477C4.02621 19.083 5.0881 18.8158 6.15521 18.561C6.26452 18.5337 6.41548 18.5486 6.50917 18.603C8.16188 19.5457 9.94213 20.0182 11.8733 19.9539C14.0622 19.8797 16.0038 19.177 17.6669 17.8311C19.6658 16.213 20.7875 14.1521 21.0218 11.6606C21.1806 9.96829 20.8474 8.3601 20.0354 6.85336C18.9839 4.90126 17.3936 3.46627 15.262 2.61269C12.9665 1.69231 10.6266 1.63293 8.28942 2.44445C5.97822 3.24854 4.24223 4.71323 3.09965 6.78903C2.23295 8.3601 1.90241 10.0376 2.07939 11.8016C2.22774 13.2911 2.74308 14.6617 3.60977 15.9136C3.69306 16.0324 3.70868 16.1363 3.66443 16.2724C3.55512 16.6064 3.46142 16.9478 3.36512 17.2843C3.16732 17.9721 2.97211 18.6624 2.7639 19.3873V19.3848Z" fill="#636ae8"/>
        <path d="M7.80792 5.89834C7.89121 5.89834 7.96668 5.90329 8.04216 5.89834C8.33106 5.87855 8.52366 6.01463 8.63037 6.24967C8.96612 6.99439 9.29926 7.7391 9.60898 8.49124C9.65843 8.61247 9.63501 8.80545 9.56213 8.91926C9.36954 9.21616 9.15091 9.50068 8.91146 9.76542C8.64599 10.0574 8.61736 10.1365 8.82557 10.4631C9.75473 11.9204 11.0405 12.9818 12.714 13.6102C12.9352 13.6943 13.1226 13.6745 13.2788 13.4915C13.5625 13.1575 13.8566 12.8284 14.1325 12.4894C14.3511 12.2247 14.4552 12.1727 14.7883 12.3064C15.2516 12.4919 15.7071 12.7047 16.1626 12.91C16.4749 13.0511 16.7846 13.202 17.0969 13.3455C17.2869 13.4321 17.3806 13.5706 17.3728 13.7735C17.3416 14.5677 17.0787 15.2283 16.3187 15.6761C15.3844 16.2279 14.4162 16.2699 13.3855 15.9978C10.9259 15.3471 9.00516 13.9615 7.47217 12.0639C6.99328 11.4701 6.55342 10.8367 6.17863 10.1786C5.69974 9.33987 5.57741 8.43186 5.88453 7.49664C6.06672 6.94738 6.41288 6.50203 6.85794 6.12597C7.13122 5.89587 7.46697 5.86371 7.80792 5.90329V5.89834Z" fill="#636ae8"/>
    </g>
    <defs>
        <clipPath id="clip0_124_174">
            <rect width="23" height="22" fill="white"/>
        </clipPath>
    </defs>
</svg>
